<mxfile host="app.diagrams.net" modified="2021-09-27T15:55:53.246Z" agent="5.0 (Macintosh; Intel Mac OS X 10_15_7) AppleWebKit/537.36 (KHTML, like Gecko) Chrome/93.0.4577.82 Safari/537.36" etag="lWwMXsT3GTsbD47VCBtA" version="15.3.4" type="github">
  <diagram id="pFvgCGhmB1vwED2cMpDZ" name="Page-1">
    <mxGraphModel dx="1604" dy="644" grid="1" gridSize="10" guides="1" tooltips="1" connect="1" arrows="1" fold="1" page="0" pageScale="1" pageWidth="827" pageHeight="1169" math="0" shadow="0">
      <root>
        <mxCell id="0" />
        <mxCell id="1" parent="0" />
        <mxCell id="cgYLOBrb9KZ1So3oihtH-15" style="edgeStyle=orthogonalEdgeStyle;rounded=0;orthogonalLoop=1;jettySize=auto;html=1;exitX=0.5;exitY=0;exitDx=0;exitDy=0;entryX=0.5;entryY=1;entryDx=0;entryDy=0;endArrow=open;startSize=14;endSize=14;sourcePerimeterSpacing=8;targetPerimeterSpacing=8;strokeWidth=2;fillColor=#f8cecc;strokeColor=#b85450;curved=1;" edge="1" parent="1" source="cgYLOBrb9KZ1So3oihtH-1" target="cgYLOBrb9KZ1So3oihtH-9">
          <mxGeometry relative="1" as="geometry" />
        </mxCell>
        <mxCell id="cgYLOBrb9KZ1So3oihtH-16" style="edgeStyle=orthogonalEdgeStyle;rounded=0;orthogonalLoop=1;jettySize=auto;html=1;exitX=0.5;exitY=0;exitDx=0;exitDy=0;entryX=0.5;entryY=1;entryDx=0;entryDy=0;endArrow=open;startSize=14;endSize=14;sourcePerimeterSpacing=8;targetPerimeterSpacing=8;strokeWidth=2;fillColor=#f8cecc;strokeColor=#b85450;curved=1;" edge="1" parent="1" source="cgYLOBrb9KZ1So3oihtH-9" target="cgYLOBrb9KZ1So3oihtH-7">
          <mxGeometry relative="1" as="geometry" />
        </mxCell>
        <mxCell id="cgYLOBrb9KZ1So3oihtH-17" style="edgeStyle=orthogonalEdgeStyle;curved=1;rounded=0;orthogonalLoop=1;jettySize=auto;html=1;exitX=0.5;exitY=0;exitDx=0;exitDy=0;entryX=0.5;entryY=1;entryDx=0;entryDy=0;endArrow=open;startSize=14;endSize=14;sourcePerimeterSpacing=8;targetPerimeterSpacing=8;strokeWidth=2;fillColor=#f8cecc;strokeColor=#b85450;" edge="1" parent="1" source="cgYLOBrb9KZ1So3oihtH-9" target="cgYLOBrb9KZ1So3oihtH-8">
          <mxGeometry relative="1" as="geometry" />
        </mxCell>
        <mxCell id="cgYLOBrb9KZ1So3oihtH-18" style="edgeStyle=orthogonalEdgeStyle;curved=1;rounded=0;orthogonalLoop=1;jettySize=auto;html=1;exitX=0.5;exitY=0;exitDx=0;exitDy=0;endArrow=open;startSize=14;endSize=14;sourcePerimeterSpacing=8;targetPerimeterSpacing=8;strokeWidth=2;fillColor=#f8cecc;strokeColor=#b85450;" edge="1" parent="1" source="cgYLOBrb9KZ1So3oihtH-1" target="cgYLOBrb9KZ1So3oihtH-10">
          <mxGeometry relative="1" as="geometry" />
        </mxCell>
        <mxCell id="cgYLOBrb9KZ1So3oihtH-19" style="edgeStyle=orthogonalEdgeStyle;curved=1;rounded=0;orthogonalLoop=1;jettySize=auto;html=1;exitX=0.5;exitY=0;exitDx=0;exitDy=0;endArrow=open;startSize=14;endSize=14;sourcePerimeterSpacing=8;targetPerimeterSpacing=8;strokeWidth=2;fillColor=#f8cecc;strokeColor=#b85450;entryX=0.5;entryY=1;entryDx=0;entryDy=0;" edge="1" parent="1" source="cgYLOBrb9KZ1So3oihtH-1" target="cgYLOBrb9KZ1So3oihtH-11">
          <mxGeometry relative="1" as="geometry">
            <mxPoint x="460" y="280" as="targetPoint" />
          </mxGeometry>
        </mxCell>
        <mxCell id="cgYLOBrb9KZ1So3oihtH-30" value="&lt;font style=&quot;font-size: 20px&quot;&gt;N&lt;/font&gt;" style="edgeStyle=orthogonalEdgeStyle;curved=1;rounded=0;orthogonalLoop=1;jettySize=auto;html=1;exitX=0;exitY=0.5;exitDx=0;exitDy=0;entryX=1;entryY=0.5;entryDx=0;entryDy=0;endArrow=open;startSize=14;endSize=14;sourcePerimeterSpacing=8;targetPerimeterSpacing=8;strokeWidth=2;" edge="1" parent="1" source="cgYLOBrb9KZ1So3oihtH-1" target="cgYLOBrb9KZ1So3oihtH-28">
          <mxGeometry relative="1" as="geometry" />
        </mxCell>
        <mxCell id="cgYLOBrb9KZ1So3oihtH-31" style="edgeStyle=orthogonalEdgeStyle;curved=1;rounded=0;orthogonalLoop=1;jettySize=auto;html=1;exitX=0.5;exitY=0;exitDx=0;exitDy=0;entryX=0.5;entryY=1;entryDx=0;entryDy=0;endArrow=open;startSize=14;endSize=14;sourcePerimeterSpacing=8;targetPerimeterSpacing=8;strokeWidth=2;fillColor=#f8cecc;strokeColor=#b85450;" edge="1" parent="1" source="cgYLOBrb9KZ1So3oihtH-1" target="cgYLOBrb9KZ1So3oihtH-21">
          <mxGeometry relative="1" as="geometry" />
        </mxCell>
        <mxCell id="cgYLOBrb9KZ1So3oihtH-1" value="&lt;font style=&quot;font-size: 20px&quot;&gt;User&lt;/font&gt;" style="whiteSpace=wrap;html=1;align=center;hachureGap=4;pointerEvents=0;fillColor=#f8cecc;strokeColor=#b85450;" vertex="1" parent="1">
          <mxGeometry x="190" y="360" width="100" height="40" as="geometry" />
        </mxCell>
        <mxCell id="cgYLOBrb9KZ1So3oihtH-51" style="edgeStyle=orthogonalEdgeStyle;curved=1;rounded=0;orthogonalLoop=1;jettySize=auto;html=1;exitX=0.5;exitY=0;exitDx=0;exitDy=0;entryX=0.5;entryY=1;entryDx=0;entryDy=0;endArrow=open;startSize=14;endSize=14;sourcePerimeterSpacing=8;targetPerimeterSpacing=8;strokeWidth=2;fillColor=#ffe6cc;strokeColor=#d79b00;" edge="1" parent="1" source="cgYLOBrb9KZ1So3oihtH-2" target="cgYLOBrb9KZ1So3oihtH-46">
          <mxGeometry relative="1" as="geometry" />
        </mxCell>
        <mxCell id="cgYLOBrb9KZ1So3oihtH-52" style="edgeStyle=orthogonalEdgeStyle;curved=1;rounded=0;orthogonalLoop=1;jettySize=auto;html=1;exitX=0.5;exitY=0;exitDx=0;exitDy=0;entryX=0.45;entryY=1.055;entryDx=0;entryDy=0;entryPerimeter=0;endArrow=open;startSize=14;endSize=14;sourcePerimeterSpacing=8;targetPerimeterSpacing=8;strokeWidth=2;fillColor=#ffe6cc;strokeColor=#d79b00;" edge="1" parent="1" source="cgYLOBrb9KZ1So3oihtH-2" target="cgYLOBrb9KZ1So3oihtH-47">
          <mxGeometry relative="1" as="geometry" />
        </mxCell>
        <mxCell id="cgYLOBrb9KZ1So3oihtH-53" style="edgeStyle=orthogonalEdgeStyle;curved=1;rounded=0;orthogonalLoop=1;jettySize=auto;html=1;exitX=0.5;exitY=0;exitDx=0;exitDy=0;entryX=0.5;entryY=1;entryDx=0;entryDy=0;endArrow=open;startSize=14;endSize=14;sourcePerimeterSpacing=8;targetPerimeterSpacing=8;strokeWidth=2;fillColor=#ffe6cc;strokeColor=#d79b00;" edge="1" parent="1" source="cgYLOBrb9KZ1So3oihtH-2" target="cgYLOBrb9KZ1So3oihtH-50">
          <mxGeometry relative="1" as="geometry" />
        </mxCell>
        <mxCell id="cgYLOBrb9KZ1So3oihtH-61" value="&lt;font style=&quot;font-size: 20px&quot;&gt;M&lt;/font&gt;" style="edgeStyle=orthogonalEdgeStyle;curved=1;rounded=0;orthogonalLoop=1;jettySize=auto;html=1;exitX=1;exitY=0.5;exitDx=0;exitDy=0;endArrow=open;startSize=14;endSize=14;sourcePerimeterSpacing=8;targetPerimeterSpacing=8;strokeWidth=2;entryX=0.5;entryY=1;entryDx=0;entryDy=0;" edge="1" parent="1" source="cgYLOBrb9KZ1So3oihtH-2" target="cgYLOBrb9KZ1So3oihtH-60">
          <mxGeometry x="-0.027" y="20" relative="1" as="geometry">
            <mxPoint as="offset" />
          </mxGeometry>
        </mxCell>
        <mxCell id="cgYLOBrb9KZ1So3oihtH-70" value="&lt;font style=&quot;font-size: 18px&quot;&gt;N&lt;/font&gt;" style="edgeStyle=orthogonalEdgeStyle;curved=1;rounded=0;orthogonalLoop=1;jettySize=auto;html=1;exitX=1;exitY=0.5;exitDx=0;exitDy=0;entryX=0;entryY=0.5;entryDx=0;entryDy=0;endArrow=open;startSize=14;endSize=14;sourcePerimeterSpacing=8;targetPerimeterSpacing=8;strokeWidth=2;" edge="1" parent="1" source="cgYLOBrb9KZ1So3oihtH-2" target="cgYLOBrb9KZ1So3oihtH-69">
          <mxGeometry relative="1" as="geometry" />
        </mxCell>
        <mxCell id="cgYLOBrb9KZ1So3oihtH-2" value="&lt;font style=&quot;font-size: 20px&quot;&gt;Table&lt;/font&gt;" style="whiteSpace=wrap;html=1;align=center;hachureGap=4;pointerEvents=0;fillColor=#ffe6cc;strokeColor=#d79b00;" vertex="1" parent="1">
          <mxGeometry x="470" y="620" width="100" height="40" as="geometry" />
        </mxCell>
        <mxCell id="cgYLOBrb9KZ1So3oihtH-76" style="edgeStyle=orthogonalEdgeStyle;curved=1;rounded=0;orthogonalLoop=1;jettySize=auto;html=1;exitX=0.5;exitY=0;exitDx=0;exitDy=0;entryX=0.5;entryY=1;entryDx=0;entryDy=0;endArrow=open;startSize=14;endSize=14;sourcePerimeterSpacing=8;targetPerimeterSpacing=8;strokeWidth=2;fillColor=#1ba1e2;strokeColor=#006EAF;" edge="1" parent="1" source="cgYLOBrb9KZ1So3oihtH-3" target="cgYLOBrb9KZ1So3oihtH-73">
          <mxGeometry relative="1" as="geometry" />
        </mxCell>
        <mxCell id="cgYLOBrb9KZ1So3oihtH-77" style="edgeStyle=orthogonalEdgeStyle;curved=1;rounded=0;orthogonalLoop=1;jettySize=auto;html=1;exitX=0.5;exitY=0;exitDx=0;exitDy=0;endArrow=open;startSize=14;endSize=14;sourcePerimeterSpacing=8;targetPerimeterSpacing=8;strokeWidth=2;entryX=0.5;entryY=1;entryDx=0;entryDy=0;fillColor=#1ba1e2;strokeColor=#006EAF;" edge="1" parent="1" source="cgYLOBrb9KZ1So3oihtH-3" target="cgYLOBrb9KZ1So3oihtH-74">
          <mxGeometry relative="1" as="geometry" />
        </mxCell>
        <mxCell id="cgYLOBrb9KZ1So3oihtH-78" style="edgeStyle=orthogonalEdgeStyle;curved=1;rounded=0;orthogonalLoop=1;jettySize=auto;html=1;exitX=0.5;exitY=0;exitDx=0;exitDy=0;entryX=0.5;entryY=1;entryDx=0;entryDy=0;endArrow=open;startSize=14;endSize=14;sourcePerimeterSpacing=8;targetPerimeterSpacing=8;strokeWidth=2;fillColor=#1ba1e2;strokeColor=#006EAF;" edge="1" parent="1" source="cgYLOBrb9KZ1So3oihtH-3" target="cgYLOBrb9KZ1So3oihtH-75">
          <mxGeometry relative="1" as="geometry" />
        </mxCell>
        <mxCell id="cgYLOBrb9KZ1So3oihtH-79" style="edgeStyle=orthogonalEdgeStyle;curved=1;rounded=0;orthogonalLoop=1;jettySize=auto;html=1;exitX=0.5;exitY=0;exitDx=0;exitDy=0;entryX=0.5;entryY=1;entryDx=0;entryDy=0;endArrow=open;startSize=14;endSize=14;sourcePerimeterSpacing=8;targetPerimeterSpacing=8;strokeWidth=2;fillColor=#1ba1e2;strokeColor=#006EAF;" edge="1" parent="1" source="cgYLOBrb9KZ1So3oihtH-3" target="cgYLOBrb9KZ1So3oihtH-72">
          <mxGeometry relative="1" as="geometry" />
        </mxCell>
        <mxCell id="cgYLOBrb9KZ1So3oihtH-81" value="&lt;font style=&quot;font-size: 20px&quot;&gt;N&lt;/font&gt;" style="edgeStyle=orthogonalEdgeStyle;curved=1;rounded=0;orthogonalLoop=1;jettySize=auto;html=1;exitX=1;exitY=0.5;exitDx=0;exitDy=0;entryX=0;entryY=0.5;entryDx=0;entryDy=0;endArrow=open;startSize=14;endSize=14;sourcePerimeterSpacing=8;targetPerimeterSpacing=8;strokeWidth=2;" edge="1" parent="1" source="cgYLOBrb9KZ1So3oihtH-3" target="cgYLOBrb9KZ1So3oihtH-80">
          <mxGeometry relative="1" as="geometry" />
        </mxCell>
        <mxCell id="cgYLOBrb9KZ1So3oihtH-3" value="&lt;span style=&quot;font-size: 20px&quot;&gt;reservation&lt;/span&gt;" style="whiteSpace=wrap;html=1;align=center;hachureGap=4;pointerEvents=0;fillColor=#1ba1e2;strokeColor=#006EAF;fontColor=#ffffff;" vertex="1" parent="1">
          <mxGeometry x="-180" y="880" width="160" height="40" as="geometry" />
        </mxCell>
        <mxCell id="cgYLOBrb9KZ1So3oihtH-39" style="edgeStyle=orthogonalEdgeStyle;curved=1;rounded=0;orthogonalLoop=1;jettySize=auto;html=1;exitX=0.5;exitY=0;exitDx=0;exitDy=0;endArrow=open;startSize=14;endSize=14;sourcePerimeterSpacing=8;targetPerimeterSpacing=8;strokeWidth=2;fillColor=#dae8fc;strokeColor=#6c8ebf;entryX=0.5;entryY=1;entryDx=0;entryDy=0;" edge="1" parent="1" source="cgYLOBrb9KZ1So3oihtH-4" target="cgYLOBrb9KZ1So3oihtH-35">
          <mxGeometry relative="1" as="geometry" />
        </mxCell>
        <mxCell id="cgYLOBrb9KZ1So3oihtH-41" style="edgeStyle=orthogonalEdgeStyle;curved=1;rounded=0;orthogonalLoop=1;jettySize=auto;html=1;exitX=0.5;exitY=0;exitDx=0;exitDy=0;entryX=0.5;entryY=1;entryDx=0;entryDy=0;endArrow=open;startSize=14;endSize=14;sourcePerimeterSpacing=8;targetPerimeterSpacing=8;strokeWidth=2;fillColor=#dae8fc;strokeColor=#6c8ebf;" edge="1" parent="1" source="cgYLOBrb9KZ1So3oihtH-4" target="cgYLOBrb9KZ1So3oihtH-36">
          <mxGeometry relative="1" as="geometry" />
        </mxCell>
        <mxCell id="cgYLOBrb9KZ1So3oihtH-42" style="edgeStyle=orthogonalEdgeStyle;curved=1;rounded=0;orthogonalLoop=1;jettySize=auto;html=1;exitX=0.5;exitY=0;exitDx=0;exitDy=0;entryX=0.5;entryY=1;entryDx=0;entryDy=0;endArrow=open;startSize=14;endSize=14;sourcePerimeterSpacing=8;targetPerimeterSpacing=8;strokeWidth=2;fillColor=#dae8fc;strokeColor=#6c8ebf;" edge="1" parent="1" source="cgYLOBrb9KZ1So3oihtH-4" target="cgYLOBrb9KZ1So3oihtH-37">
          <mxGeometry relative="1" as="geometry" />
        </mxCell>
        <mxCell id="cgYLOBrb9KZ1So3oihtH-43" style="edgeStyle=orthogonalEdgeStyle;curved=1;rounded=0;orthogonalLoop=1;jettySize=auto;html=1;exitX=0.5;exitY=0;exitDx=0;exitDy=0;entryX=0.5;entryY=1;entryDx=0;entryDy=0;endArrow=open;startSize=14;endSize=14;sourcePerimeterSpacing=8;targetPerimeterSpacing=8;strokeWidth=2;fillColor=#dae8fc;strokeColor=#6c8ebf;" edge="1" parent="1" source="cgYLOBrb9KZ1So3oihtH-4" target="cgYLOBrb9KZ1So3oihtH-32">
          <mxGeometry relative="1" as="geometry" />
        </mxCell>
        <mxCell id="cgYLOBrb9KZ1So3oihtH-4" value="&lt;font style=&quot;font-size: 20px&quot;&gt;Waiter&lt;/font&gt;" style="whiteSpace=wrap;html=1;align=center;hachureGap=4;pointerEvents=0;fillColor=#dae8fc;strokeColor=#6c8ebf;" vertex="1" parent="1">
          <mxGeometry x="810" y="350" width="100" height="40" as="geometry" />
        </mxCell>
        <mxCell id="cgYLOBrb9KZ1So3oihtH-58" style="edgeStyle=orthogonalEdgeStyle;curved=1;rounded=0;orthogonalLoop=1;jettySize=auto;html=1;exitX=0.5;exitY=0;exitDx=0;exitDy=0;entryX=0.5;entryY=1;entryDx=0;entryDy=0;endArrow=open;startSize=14;endSize=14;sourcePerimeterSpacing=8;targetPerimeterSpacing=8;strokeWidth=2;fillColor=#fff2cc;strokeColor=#d6b656;" edge="1" parent="1" source="cgYLOBrb9KZ1So3oihtH-5" target="cgYLOBrb9KZ1So3oihtH-54">
          <mxGeometry relative="1" as="geometry" />
        </mxCell>
        <mxCell id="cgYLOBrb9KZ1So3oihtH-59" style="edgeStyle=orthogonalEdgeStyle;curved=1;rounded=0;orthogonalLoop=1;jettySize=auto;html=1;exitX=0.5;exitY=0;exitDx=0;exitDy=0;endArrow=open;startSize=14;endSize=14;sourcePerimeterSpacing=8;targetPerimeterSpacing=8;strokeWidth=2;fillColor=#fff2cc;strokeColor=#d6b656;entryX=0.5;entryY=1;entryDx=0;entryDy=0;" edge="1" parent="1" source="cgYLOBrb9KZ1So3oihtH-5" target="cgYLOBrb9KZ1So3oihtH-55">
          <mxGeometry relative="1" as="geometry" />
        </mxCell>
        <mxCell id="cgYLOBrb9KZ1So3oihtH-5" value="&lt;font style=&quot;font-size: 20px&quot;&gt;Location&lt;/font&gt;" style="whiteSpace=wrap;html=1;align=center;hachureGap=4;pointerEvents=0;fillColor=#fff2cc;strokeColor=#d6b656;" vertex="1" parent="1">
          <mxGeometry x="880" y="760" width="100" height="40" as="geometry" />
        </mxCell>
        <mxCell id="cgYLOBrb9KZ1So3oihtH-7" value="first_name" style="ellipse;whiteSpace=wrap;html=1;align=center;hachureGap=4;pointerEvents=0;" vertex="1" parent="1">
          <mxGeometry x="30" y="180" width="100" height="40" as="geometry" />
        </mxCell>
        <mxCell id="cgYLOBrb9KZ1So3oihtH-8" value="last_name" style="ellipse;whiteSpace=wrap;html=1;align=center;hachureGap=4;pointerEvents=0;" vertex="1" parent="1">
          <mxGeometry x="150" y="180" width="100" height="40" as="geometry" />
        </mxCell>
        <mxCell id="cgYLOBrb9KZ1So3oihtH-9" value="name" style="ellipse;whiteSpace=wrap;html=1;align=center;hachureGap=4;pointerEvents=0;" vertex="1" parent="1">
          <mxGeometry x="100" y="240" width="100" height="40" as="geometry" />
        </mxCell>
        <mxCell id="cgYLOBrb9KZ1So3oihtH-10" value="email" style="ellipse;whiteSpace=wrap;html=1;align=center;hachureGap=4;pointerEvents=0;" vertex="1" parent="1">
          <mxGeometry x="250" y="240" width="100" height="40" as="geometry" />
        </mxCell>
        <mxCell id="cgYLOBrb9KZ1So3oihtH-11" value="phone" style="ellipse;whiteSpace=wrap;html=1;align=center;hachureGap=4;pointerEvents=0;" vertex="1" parent="1">
          <mxGeometry x="410" y="240" width="100" height="40" as="geometry" />
        </mxCell>
        <mxCell id="cgYLOBrb9KZ1So3oihtH-21" value="ID" style="ellipse;whiteSpace=wrap;html=1;align=center;fontStyle=4;hachureGap=4;pointerEvents=0;" vertex="1" parent="1">
          <mxGeometry x="340" y="180" width="100" height="40" as="geometry" />
        </mxCell>
        <mxCell id="cgYLOBrb9KZ1So3oihtH-26" style="edgeStyle=orthogonalEdgeStyle;curved=1;rounded=0;orthogonalLoop=1;jettySize=auto;html=1;exitX=0.5;exitY=0;exitDx=0;exitDy=0;entryX=0.5;entryY=1;entryDx=0;entryDy=0;endArrow=open;startSize=14;endSize=14;sourcePerimeterSpacing=8;targetPerimeterSpacing=8;strokeWidth=2;fillColor=#f8cecc;strokeColor=#b85450;" edge="1" parent="1" source="cgYLOBrb9KZ1So3oihtH-22" target="cgYLOBrb9KZ1So3oihtH-23">
          <mxGeometry relative="1" as="geometry" />
        </mxCell>
        <mxCell id="cgYLOBrb9KZ1So3oihtH-27" style="edgeStyle=orthogonalEdgeStyle;curved=1;rounded=0;orthogonalLoop=1;jettySize=auto;html=1;exitX=0.5;exitY=0;exitDx=0;exitDy=0;entryX=0.5;entryY=1;entryDx=0;entryDy=0;endArrow=open;startSize=14;endSize=14;sourcePerimeterSpacing=8;targetPerimeterSpacing=8;strokeWidth=2;fillColor=#f8cecc;strokeColor=#b85450;" edge="1" parent="1" source="cgYLOBrb9KZ1So3oihtH-22" target="cgYLOBrb9KZ1So3oihtH-25">
          <mxGeometry relative="1" as="geometry" />
        </mxCell>
        <mxCell id="cgYLOBrb9KZ1So3oihtH-22" value="&lt;font style=&quot;font-size: 20px&quot;&gt;Status&lt;/font&gt;" style="whiteSpace=wrap;html=1;align=center;hachureGap=4;pointerEvents=0;fillColor=#fff2cc;strokeColor=#d6b656;" vertex="1" parent="1">
          <mxGeometry x="-260" y="360" width="100" height="40" as="geometry" />
        </mxCell>
        <mxCell id="cgYLOBrb9KZ1So3oihtH-23" value="ID" style="ellipse;whiteSpace=wrap;html=1;align=center;fontStyle=4;hachureGap=4;pointerEvents=0;" vertex="1" parent="1">
          <mxGeometry x="-350" y="240" width="100" height="40" as="geometry" />
        </mxCell>
        <mxCell id="cgYLOBrb9KZ1So3oihtH-25" value="status" style="ellipse;whiteSpace=wrap;html=1;align=center;hachureGap=4;pointerEvents=0;" vertex="1" parent="1">
          <mxGeometry x="-170" y="240" width="100" height="40" as="geometry" />
        </mxCell>
        <mxCell id="cgYLOBrb9KZ1So3oihtH-29" value="&lt;font style=&quot;font-size: 20px&quot;&gt;1&lt;/font&gt;" style="edgeStyle=orthogonalEdgeStyle;curved=1;rounded=0;orthogonalLoop=1;jettySize=auto;html=1;exitX=0;exitY=0.5;exitDx=0;exitDy=0;entryX=1;entryY=0.5;entryDx=0;entryDy=0;endArrow=open;startSize=14;endSize=14;sourcePerimeterSpacing=8;targetPerimeterSpacing=8;strokeWidth=2;" edge="1" parent="1" source="cgYLOBrb9KZ1So3oihtH-28" target="cgYLOBrb9KZ1So3oihtH-22">
          <mxGeometry relative="1" as="geometry" />
        </mxCell>
        <mxCell id="cgYLOBrb9KZ1So3oihtH-28" value="has" style="shape=rhombus;perimeter=rhombusPerimeter;whiteSpace=wrap;html=1;align=center;hachureGap=4;pointerEvents=0;fillColor=#d5e8d4;strokeColor=#82b366;" vertex="1" parent="1">
          <mxGeometry x="-40" y="350" width="120" height="60" as="geometry" />
        </mxCell>
        <mxCell id="cgYLOBrb9KZ1So3oihtH-32" value="CPR" style="ellipse;whiteSpace=wrap;html=1;align=center;fontStyle=4;hachureGap=4;pointerEvents=0;" vertex="1" parent="1">
          <mxGeometry x="980" y="240" width="100" height="40" as="geometry" />
        </mxCell>
        <mxCell id="cgYLOBrb9KZ1So3oihtH-33" value="first name" style="ellipse;whiteSpace=wrap;html=1;align=center;hachureGap=4;pointerEvents=0;" vertex="1" parent="1">
          <mxGeometry x="600" y="180" width="100" height="40" as="geometry" />
        </mxCell>
        <mxCell id="cgYLOBrb9KZ1So3oihtH-34" value="last name" style="ellipse;whiteSpace=wrap;html=1;align=center;hachureGap=4;pointerEvents=0;" vertex="1" parent="1">
          <mxGeometry x="760" y="180" width="100" height="40" as="geometry" />
        </mxCell>
        <mxCell id="cgYLOBrb9KZ1So3oihtH-44" style="edgeStyle=orthogonalEdgeStyle;curved=1;rounded=0;orthogonalLoop=1;jettySize=auto;html=1;exitX=0.5;exitY=0;exitDx=0;exitDy=0;entryX=0.5;entryY=1;entryDx=0;entryDy=0;endArrow=open;startSize=14;endSize=14;sourcePerimeterSpacing=8;targetPerimeterSpacing=8;strokeWidth=2;fillColor=#dae8fc;strokeColor=#6c8ebf;" edge="1" parent="1" source="cgYLOBrb9KZ1So3oihtH-35" target="cgYLOBrb9KZ1So3oihtH-34">
          <mxGeometry relative="1" as="geometry" />
        </mxCell>
        <mxCell id="cgYLOBrb9KZ1So3oihtH-45" style="edgeStyle=orthogonalEdgeStyle;curved=1;rounded=0;orthogonalLoop=1;jettySize=auto;html=1;exitX=0.5;exitY=0;exitDx=0;exitDy=0;entryX=0.5;entryY=1;entryDx=0;entryDy=0;endArrow=open;startSize=14;endSize=14;sourcePerimeterSpacing=8;targetPerimeterSpacing=8;strokeWidth=2;fillColor=#dae8fc;strokeColor=#6c8ebf;" edge="1" parent="1" source="cgYLOBrb9KZ1So3oihtH-35" target="cgYLOBrb9KZ1So3oihtH-33">
          <mxGeometry relative="1" as="geometry">
            <Array as="points">
              <mxPoint x="740" y="220" />
            </Array>
          </mxGeometry>
        </mxCell>
        <mxCell id="cgYLOBrb9KZ1So3oihtH-35" value="name" style="ellipse;whiteSpace=wrap;html=1;align=center;hachureGap=4;pointerEvents=0;" vertex="1" parent="1">
          <mxGeometry x="690" y="240" width="100" height="40" as="geometry" />
        </mxCell>
        <mxCell id="cgYLOBrb9KZ1So3oihtH-36" value="Phone" style="ellipse;whiteSpace=wrap;html=1;align=center;hachureGap=4;pointerEvents=0;" vertex="1" parent="1">
          <mxGeometry x="830" y="240" width="100" height="40" as="geometry" />
        </mxCell>
        <mxCell id="cgYLOBrb9KZ1So3oihtH-37" value="email" style="ellipse;whiteSpace=wrap;html=1;align=center;hachureGap=4;pointerEvents=0;" vertex="1" parent="1">
          <mxGeometry x="910" y="180" width="100" height="40" as="geometry" />
        </mxCell>
        <mxCell id="cgYLOBrb9KZ1So3oihtH-46" value="ID" style="ellipse;whiteSpace=wrap;html=1;align=center;fontStyle=4;hachureGap=4;pointerEvents=0;" vertex="1" parent="1">
          <mxGeometry x="300" y="500" width="100" height="40" as="geometry" />
        </mxCell>
        <mxCell id="cgYLOBrb9KZ1So3oihtH-47" value="Seat nr" style="ellipse;whiteSpace=wrap;html=1;align=center;hachureGap=4;pointerEvents=0;" vertex="1" parent="1">
          <mxGeometry x="440" y="500" width="100" height="40" as="geometry" />
        </mxCell>
        <mxCell id="cgYLOBrb9KZ1So3oihtH-50" value="status" style="ellipse;whiteSpace=wrap;html=1;align=center;dashed=1;hachureGap=4;pointerEvents=0;" vertex="1" parent="1">
          <mxGeometry x="580" y="500" width="100" height="40" as="geometry" />
        </mxCell>
        <mxCell id="cgYLOBrb9KZ1So3oihtH-54" value="ID" style="ellipse;whiteSpace=wrap;html=1;align=center;fontStyle=4;hachureGap=4;pointerEvents=0;" vertex="1" parent="1">
          <mxGeometry x="800" y="640" width="100" height="40" as="geometry" />
        </mxCell>
        <mxCell id="cgYLOBrb9KZ1So3oihtH-55" value="location" style="ellipse;whiteSpace=wrap;html=1;align=center;hachureGap=4;pointerEvents=0;" vertex="1" parent="1">
          <mxGeometry x="950" y="640" width="100" height="40" as="geometry" />
        </mxCell>
        <mxCell id="cgYLOBrb9KZ1So3oihtH-62" value="&lt;font style=&quot;font-size: 20px&quot;&gt;N&lt;/font&gt;" style="edgeStyle=orthogonalEdgeStyle;curved=1;rounded=0;orthogonalLoop=1;jettySize=auto;html=1;exitX=0.5;exitY=0;exitDx=0;exitDy=0;entryX=0.5;entryY=1;entryDx=0;entryDy=0;endArrow=open;startSize=14;endSize=14;sourcePerimeterSpacing=8;targetPerimeterSpacing=8;strokeWidth=2;" edge="1" parent="1" source="cgYLOBrb9KZ1So3oihtH-60" target="cgYLOBrb9KZ1So3oihtH-4">
          <mxGeometry relative="1" as="geometry" />
        </mxCell>
        <mxCell id="cgYLOBrb9KZ1So3oihtH-66" style="edgeStyle=orthogonalEdgeStyle;curved=1;rounded=0;orthogonalLoop=1;jettySize=auto;html=1;exitX=1;exitY=0.5;exitDx=0;exitDy=0;entryX=0;entryY=1;entryDx=0;entryDy=0;endArrow=open;startSize=14;endSize=14;sourcePerimeterSpacing=8;targetPerimeterSpacing=8;strokeWidth=2;fillColor=#d5e8d4;strokeColor=#82b366;" edge="1" parent="1" source="cgYLOBrb9KZ1So3oihtH-60" target="cgYLOBrb9KZ1So3oihtH-63">
          <mxGeometry relative="1" as="geometry" />
        </mxCell>
        <mxCell id="cgYLOBrb9KZ1So3oihtH-67" style="edgeStyle=orthogonalEdgeStyle;curved=1;rounded=0;orthogonalLoop=1;jettySize=auto;html=1;exitX=1;exitY=0.5;exitDx=0;exitDy=0;endArrow=open;startSize=14;endSize=14;sourcePerimeterSpacing=8;targetPerimeterSpacing=8;strokeWidth=2;entryX=0;entryY=0.5;entryDx=0;entryDy=0;fillColor=#d5e8d4;strokeColor=#82b366;" edge="1" parent="1" source="cgYLOBrb9KZ1So3oihtH-60" target="cgYLOBrb9KZ1So3oihtH-64">
          <mxGeometry relative="1" as="geometry" />
        </mxCell>
        <mxCell id="cgYLOBrb9KZ1So3oihtH-68" style="edgeStyle=orthogonalEdgeStyle;curved=1;rounded=0;orthogonalLoop=1;jettySize=auto;html=1;exitX=1;exitY=0.5;exitDx=0;exitDy=0;entryX=0;entryY=0.5;entryDx=0;entryDy=0;endArrow=open;startSize=14;endSize=14;sourcePerimeterSpacing=8;targetPerimeterSpacing=8;strokeWidth=2;fillColor=#d5e8d4;strokeColor=#82b366;" edge="1" parent="1" source="cgYLOBrb9KZ1So3oihtH-60" target="cgYLOBrb9KZ1So3oihtH-65">
          <mxGeometry relative="1" as="geometry" />
        </mxCell>
        <mxCell id="cgYLOBrb9KZ1So3oihtH-60" value="has" style="shape=rhombus;perimeter=rhombusPerimeter;whiteSpace=wrap;html=1;align=center;hachureGap=4;pointerEvents=0;fillColor=#d5e8d4;strokeColor=#82b366;" vertex="1" parent="1">
          <mxGeometry x="770" y="470" width="120" height="60" as="geometry" />
        </mxCell>
        <mxCell id="cgYLOBrb9KZ1So3oihtH-63" value="date" style="ellipse;whiteSpace=wrap;html=1;align=center;hachureGap=4;pointerEvents=0;" vertex="1" parent="1">
          <mxGeometry x="930" y="430" width="100" height="40" as="geometry" />
        </mxCell>
        <mxCell id="cgYLOBrb9KZ1So3oihtH-64" value="start time" style="ellipse;whiteSpace=wrap;html=1;align=center;hachureGap=4;pointerEvents=0;" vertex="1" parent="1">
          <mxGeometry x="940" y="480" width="100" height="40" as="geometry" />
        </mxCell>
        <mxCell id="cgYLOBrb9KZ1So3oihtH-65" value="end time" style="ellipse;whiteSpace=wrap;html=1;align=center;hachureGap=4;pointerEvents=0;" vertex="1" parent="1">
          <mxGeometry x="940" y="530" width="100" height="40" as="geometry" />
        </mxCell>
        <mxCell id="cgYLOBrb9KZ1So3oihtH-71" value="&lt;font style=&quot;font-size: 20px&quot;&gt;1&lt;/font&gt;" style="edgeStyle=orthogonalEdgeStyle;curved=1;rounded=0;orthogonalLoop=1;jettySize=auto;html=1;exitX=1;exitY=0.5;exitDx=0;exitDy=0;entryX=0;entryY=0.5;entryDx=0;entryDy=0;endArrow=open;startSize=14;endSize=14;sourcePerimeterSpacing=8;targetPerimeterSpacing=8;strokeWidth=2;" edge="1" parent="1" source="cgYLOBrb9KZ1So3oihtH-69" target="cgYLOBrb9KZ1So3oihtH-5">
          <mxGeometry relative="1" as="geometry" />
        </mxCell>
        <mxCell id="cgYLOBrb9KZ1So3oihtH-69" value="has" style="shape=rhombus;perimeter=rhombusPerimeter;whiteSpace=wrap;html=1;align=center;hachureGap=4;pointerEvents=0;fillColor=#d5e8d4;strokeColor=#82b366;" vertex="1" parent="1">
          <mxGeometry x="660" y="750" width="120" height="60" as="geometry" />
        </mxCell>
        <mxCell id="cgYLOBrb9KZ1So3oihtH-72" value="Id" style="ellipse;whiteSpace=wrap;html=1;align=center;fontStyle=4;hachureGap=4;pointerEvents=0;" vertex="1" parent="1">
          <mxGeometry x="-270" y="730" width="100" height="40" as="geometry" />
        </mxCell>
        <mxCell id="cgYLOBrb9KZ1So3oihtH-73" value="date" style="ellipse;whiteSpace=wrap;html=1;align=center;hachureGap=4;pointerEvents=0;" vertex="1" parent="1">
          <mxGeometry x="-230" y="780" width="100" height="40" as="geometry" />
        </mxCell>
        <mxCell id="cgYLOBrb9KZ1So3oihtH-74" value="start time" style="ellipse;whiteSpace=wrap;html=1;align=center;hachureGap=4;pointerEvents=0;" vertex="1" parent="1">
          <mxGeometry x="-90" y="780" width="100" height="40" as="geometry" />
        </mxCell>
        <mxCell id="cgYLOBrb9KZ1So3oihtH-75" value="end time" style="ellipse;whiteSpace=wrap;html=1;align=center;dashed=1;hachureGap=4;pointerEvents=0;" vertex="1" parent="1">
          <mxGeometry x="-40" y="730" width="100" height="40" as="geometry" />
        </mxCell>
        <mxCell id="cgYLOBrb9KZ1So3oihtH-82" value="&lt;font style=&quot;font-size: 20px&quot;&gt;M&lt;/font&gt;" style="edgeStyle=orthogonalEdgeStyle;curved=1;rounded=0;orthogonalLoop=1;jettySize=auto;html=1;exitX=1;exitY=0.5;exitDx=0;exitDy=0;entryX=0.581;entryY=1.06;entryDx=0;entryDy=0;entryPerimeter=0;endArrow=open;startSize=14;endSize=14;sourcePerimeterSpacing=8;targetPerimeterSpacing=8;strokeWidth=2;" edge="1" parent="1" source="cgYLOBrb9KZ1So3oihtH-80" target="cgYLOBrb9KZ1So3oihtH-2">
          <mxGeometry relative="1" as="geometry" />
        </mxCell>
        <mxCell id="cgYLOBrb9KZ1So3oihtH-80" value="has" style="shape=rhombus;perimeter=rhombusPerimeter;whiteSpace=wrap;html=1;align=center;hachureGap=4;pointerEvents=0;fillColor=#d5e8d4;strokeColor=#82b366;" vertex="1" parent="1">
          <mxGeometry x="230" y="730" width="120" height="60" as="geometry" />
        </mxCell>
        <mxCell id="cgYLOBrb9KZ1So3oihtH-84" value="has" style="shape=rhombus;perimeter=rhombusPerimeter;whiteSpace=wrap;html=1;align=center;hachureGap=4;pointerEvents=0;fillColor=#d5e8d4;strokeColor=#82b366;" vertex="1" parent="1">
          <mxGeometry x="120" y="580" width="120" height="60" as="geometry" />
        </mxCell>
        <mxCell id="cgYLOBrb9KZ1So3oihtH-85" value="&lt;font style=&quot;font-size: 20px&quot;&gt;N&lt;/font&gt;" style="edgeStyle=orthogonalEdgeStyle;curved=1;rounded=0;orthogonalLoop=1;jettySize=auto;html=1;exitX=1;exitY=0.5;exitDx=0;exitDy=0;endArrow=open;startSize=14;endSize=14;sourcePerimeterSpacing=8;targetPerimeterSpacing=8;strokeWidth=2;entryX=0;entryY=0.5;entryDx=0;entryDy=0;" edge="1" parent="1" source="cgYLOBrb9KZ1So3oihtH-3" target="cgYLOBrb9KZ1So3oihtH-84">
          <mxGeometry relative="1" as="geometry">
            <mxPoint x="-10.000000000000227" y="909.9999999999998" as="sourcePoint" />
            <mxPoint x="239.99999999999977" y="770" as="targetPoint" />
            <Array as="points">
              <mxPoint x="-20" y="890" />
              <mxPoint x="70" y="890" />
              <mxPoint x="70" y="610" />
            </Array>
          </mxGeometry>
        </mxCell>
        <mxCell id="cgYLOBrb9KZ1So3oihtH-86" value="&lt;font style=&quot;font-size: 20px&quot;&gt;M&lt;/font&gt;" style="edgeStyle=orthogonalEdgeStyle;curved=1;rounded=0;orthogonalLoop=1;jettySize=auto;html=1;exitX=1;exitY=0.5;exitDx=0;exitDy=0;entryX=0.5;entryY=1;entryDx=0;entryDy=0;endArrow=open;startSize=14;endSize=14;sourcePerimeterSpacing=8;targetPerimeterSpacing=8;strokeWidth=2;" edge="1" parent="1" source="cgYLOBrb9KZ1So3oihtH-84" target="cgYLOBrb9KZ1So3oihtH-1">
          <mxGeometry relative="1" as="geometry">
            <mxPoint x="231.89999999999978" y="607.6" as="sourcePoint" />
            <mxPoint x="409.9999999999999" y="510.0000000000001" as="targetPoint" />
          </mxGeometry>
        </mxCell>
      </root>
    </mxGraphModel>
  </diagram>
</mxfile>
